# xmcd CD database file
#
# Track frame offsets:
#	150
#	14790
#	36994
#	54474
#	77109
#	89779
#	112733
#	131860
#	149198
#	164064
#	188677
#	215773
#	236751
#	286504
#
# Disc length: 4155 seconds
#
# Revision: 0
# Processed by: cddbd v1.5.1PL2 Copyright (c) Steve Scherf et al.
# Submitted via: CDex 1.51
#
DISCID=da10390e
DTITLE=Robert Earl Keen - Live at the Ryman
DYEAR=2005
DGENRE=Country
TTITLE0=Feelin' Good Again
TTITLE1=Gringo Honeymoon
TTITLE2=What I Really Mean
TTITLE3=Shades Of Gray
TTITLE4=Amarillo Highway
TTITLE5=Merry Little Christmas From The Family
TTITLE6=Corpus Christi Bay
TTITLE7=Furnace Fan
TTITLE8=Broken End Of Love
TTITLE9=Long Chain
TTITLE10=Train Trek
TTITLE11=I'm Comin' Home
TTITLE12=The Road Goes On Forever
TTITLE13=Farm Fresh Onions
EXTD=YEAR: 2005
EXTT0=
EXTT1=
EXTT2=
EXTT3=
EXTT4=
EXTT5=
EXTT6=
EXTT7=
EXTT8=
EXTT9=
EXTT10=
EXTT11=
EXTT12=
EXTT13=
PLAYORDER=
